<?xml version="1.0" encoding="UTF-8"?>
<!-- Generated by Pixelmator Pro 3.6.18 -->
<svg width="311" height="197" viewBox="0 0 311 197" xmlns="http://www.w3.org/2000/svg">
    <path id="Shape" fill="#0096aa" fill-rule="evenodd" stroke="none" d="M 119.941292 193.730957 C 115.839737 197.442825 115.820213 197.430725 116.486084 191.585831 C 116.906174 187.898331 118.443375 185.463562 120.610962 185.052505 C 122.585548 184.67804 124.066177 185.597244 124.066177 187.197632 C 124.066177 188.737823 122.209984 191.677826 119.941292 193.730957 Z M 163.348969 184.297409 C 162.575027 184.626221 161.476685 184.142654 160.908218 183.222824 C 160.339722 182.303009 161.595047 177.707657 163.69783 173.010941 C 165.800613 168.314224 168.71962 160.357193 170.184525 155.328644 C 171.871277 149.538513 174.125595 145.935257 176.332138 145.502518 C 178.248459 145.126694 181.052094 146.054916 182.562393 147.565247 C 184.361725 149.364563 185.149918 153.954514 184.848648 160.878815 C 184.397339 171.25148 184.207809 171.559341 174.572479 177.572968 C 169.173492 180.942612 164.122894 183.968613 163.348969 184.297409 Z M 288.568695 166.847153 C 286.595154 166.80867 282.941498 165.645477 280.449463 164.262283 C 277.957428 162.879074 274.058105 158.690262 271.784302 154.953796 C 269.510529 151.217346 265.962616 143.27359 263.900085 137.300995 C 261.837555 131.3284 259.670746 124.552078 259.084961 122.242477 C 258.246857 118.937973 259.840485 116.814949 266.564148 112.278778 C 271.263489 109.10833 278.872192 104.399788 283.472351 101.815346 C 290.190063 98.041252 292.716095 97.525131 296.306 99.193161 C 298.764343 100.335403 303.37085 102.319199 306.542694 103.601593 C 312.309662 105.93322 312.309662 105.93322 307.529907 110.569992 C 304.901001 113.120209 297.108521 118.014259 290.213226 121.445656 C 280.7146 126.172562 277.927094 128.490936 278.711151 131.011963 C 279.280334 132.842041 281.940948 139.670288 284.623627 146.185822 C 287.306274 152.701385 290.098755 160.031372 290.829071 162.474701 C 291.868073 165.950562 291.376282 166.901901 288.568695 166.847153 Z M 68.607826 162.312241 C 64.294502 163.174896 61.525883 161.84137 54.652042 155.590317 C 49.935799 151.301392 35.859478 140.011826 23.371353 130.502411 C 10.883226 120.993019 0.389618 111.584732 0.05224 109.595116 C -0.285138 107.605507 1.047579 105.117104 3.013853 104.065323 C 4.980127 103.013542 12.296096 101.030525 19.271599 99.658615 C 31.954302 97.164238 31.954302 97.164238 38.362949 104.797668 C 44.77161 112.431107 44.77161 112.431107 44.437126 105.61557 C 44.11787 99.110374 44.435467 98.772385 51.412041 98.192886 C 58.070892 97.639778 59.245232 98.342674 64.606888 106.090523 C 67.843895 110.76815 71.971603 116.237099 73.779587 118.243752 C 75.898758 120.595772 78.79171 121.562454 81.921104 120.964249 C 84.620277 120.448257 88.007614 121.268593 89.551086 122.812035 C 91.077744 124.338699 93.24382 128.889618 94.364609 132.925201 C 95.485428 136.96077 96.40741 141.882599 96.413429 143.862595 C 96.419937 145.981689 95.252121 147.199982 93.574554 146.824203 C 92.007103 146.473099 88.675293 143.144318 86.170525 139.42691 C 81.910797 133.10495 80.893288 132.658218 70.430786 132.516479 C 61.694473 132.398148 59.693825 132.905396 61.294102 134.832977 C 62.421017 136.190384 67.211929 137.300995 71.940605 137.300995 C 78.925896 137.300995 81.142891 138.223923 83.762947 142.222626 C 85.668701 145.131195 86.514275 149.03067 85.830208 151.75618 C 85.193565 154.292725 82.268768 157.463394 79.330658 158.802094 C 76.392525 160.140793 71.567268 161.720352 68.607826 162.312241 Z M 262.790314 157.275513 C 261.963776 158.077972 258.177856 157.43811 254.377121 155.853607 C 250.57637 154.269104 244.35701 151.51062 240.556259 149.723633 C 236.755524 147.936646 231.62674 146.080093 229.158981 145.597931 C 226.691238 145.115784 223.066772 142.680405 221.104645 140.185974 C 219.142532 137.691559 215.951843 129.794052 214.014252 122.635963 C 212.076645 115.477875 208.744202 107.400139 206.608826 104.685432 C 204.473419 101.970734 201.908936 100.254753 200.909988 100.872147 C 199.911041 101.489555 199.093689 110.774658 199.093689 121.50573 C 199.093689 133.522217 198.262512 141.530457 196.92981 142.354111 C 195.7397 143.089661 193.648697 142.475723 192.283188 140.989838 C 190.917679 139.503937 188.223419 132.068817 186.295944 124.467339 C 184.368469 116.865868 182.380203 107.896896 181.877502 104.536285 C 181.062866 99.089905 182.193848 97.373894 192.287674 88.74102 C 198.515915 83.41423 206.705658 76.948532 210.487122 74.372787 C 215.30603 71.090363 220.388229 69.613991 227.478546 69.436768 C 237.236618 69.192856 237.610947 68.974274 238.055176 63.260681 C 238.308487 60.002914 237.864227 52.459259 237.067963 46.496979 C 235.722076 36.419037 235.203583 35.584396 229.697021 34.631149 C 226.224274 34.029968 223.773788 32.388565 223.773788 30.663559 C 223.773788 28.557938 225.458008 27.916794 229.697021 28.408737 C 232.954773 28.786804 238.507797 30.296326 242.037064 31.763214 C 247.252548 33.930954 248.453888 35.53627 248.453888 40.337708 C 248.453888 43.586807 249.32402 46.782928 250.387512 47.440201 C 251.450974 48.097473 254.053406 47.70813 256.170654 46.575012 C 258.389404 45.387573 261.543304 39.71077 263.615509 33.174713 C 266.070892 25.429993 268.372742 21.613632 270.875702 21.137604 C 272.891418 20.754242 275.453644 21.353592 276.56955 22.469482 C 277.958435 23.858383 276.948059 27.314468 273.366364 33.426132 C 270.488739 38.336426 267.5961 45.045181 266.938232 48.334473 C 265.990784 53.071762 266.510468 54.563797 269.43808 55.511688 C 271.470825 56.169846 275.102814 57.650162 277.509125 58.801315 C 280.719727 60.337234 282.665894 60.24556 284.821075 58.45694 C 287.181885 56.49762 286.983368 58.665894 283.808838 69.512177 C 281.63681 76.933105 280.276642 85.811943 280.786163 89.242935 C 281.639893 94.991646 280.793488 96.125809 269.998383 103.698135 C 263.555573 108.217514 256.738708 111.61747 254.849838 111.253593 C 252.271027 110.756805 253.204605 109.486221 258.597595 106.152969 C 262.547699 103.711502 266.908051 100.354286 268.287201 98.692505 C 270.119507 96.484703 270.206604 95.08287 268.610565 93.486832 C 267.014526 91.890793 264.936859 92.248001 260.895325 94.813309 C 257.853271 96.744202 252.92099 100.596436 249.934708 103.373833 C 246.94841 106.151237 244.505081 110.034401 244.505081 112.003082 C 244.505081 113.971764 245.732483 115.582504 247.232666 115.582504 C 248.732803 115.582504 251.286148 119.358559 252.906738 123.97374 C 254.527298 128.588928 257.752197 137.641571 260.073151 144.090744 C 262.394104 150.539917 263.616821 156.473068 262.790314 157.275513 Z M 132.951004 150.609024 C 130.732758 151.047882 125.108391 148.729095 120.117355 145.318039 C 114.466545 141.456039 109.697723 139.603577 107.016022 140.228729 C 104.69693 140.769333 101.888878 140.109619 100.775864 138.762711 C 99.66288 137.415802 98.12381 132.951157 97.355743 128.841263 C 96.587685 124.731377 94.509102 119.657593 92.736664 117.566193 C 90.538956 114.973007 87.369255 113.895889 82.770294 114.179466 C 77.049583 114.532219 75.447784 113.618843 72.211266 108.158531 C 68.395958 101.721764 68.395958 101.721764 75.881844 98.593956 C 79.999084 96.873672 86.228973 95.001839 89.726067 94.434341 C 95.23748 93.539955 96.455971 94.156471 98.873909 99.062889 C 100.408165 102.176094 102.741531 108.499313 104.059235 113.114494 C 105.3769 117.729675 107.64357 121.50573 109.096237 121.50573 C 110.548935 121.50573 115.033653 120.128502 119.062309 118.445213 C 123.573326 116.560387 126.005997 114.391434 125.394958 112.79908 C 124.849236 111.376984 121.712135 104.883362 118.423615 98.368805 C 112.940849 87.507523 112.690308 86.173187 115.405663 82.296455 C 117.034332 79.971214 119.626404 78.068748 121.16581 78.068748 C 122.705246 78.068748 125.426353 80.956322 127.212769 84.485573 C 128.999146 88.014824 132.574219 92.679367 135.157333 94.851219 C 138.362823 97.546371 141.731308 105.068352 145.767365 118.544113 C 149.019836 129.403351 151.288467 139.352341 150.808777 140.652985 C 150.329086 141.953613 147.003372 144.550003 143.418243 146.42276 C 139.833115 148.295532 135.122879 150.179352 132.951004 150.609024 Z M 58.552158 130.415314 C 58.897911 130.072144 55.874825 125.48378 51.834198 120.218933 C 47.793552 114.954086 44.845211 111.703262 45.28231 112.994896 C 45.71941 114.28653 48.742496 118.874886 52.000271 123.191269 C 55.258049 127.507645 58.20639 130.758453 58.552158 130.415314 Z M 155.743866 124.182739 C 154.801544 125.125061 152.704132 123.811867 151.016891 121.223198 C 149.348755 118.663773 146.868149 112.377968 145.504547 107.25473 C 144.1409 102.131493 143.607742 97.357185 144.319763 96.645172 C 145.031784 95.933144 146.856583 95.827271 148.374878 96.409897 C 149.893158 96.992508 152.553406 103.098602 154.286591 109.978996 C 156.039566 116.938034 156.686172 123.240425 155.743866 124.182739 Z M 114.984062 113.015717 C 113.78965 113.413857 111.919479 112.599419 110.828125 111.205841 C 109.736771 109.812271 107.738861 105.562378 106.388359 101.761642 C 105.037849 97.960907 103.472565 93.296371 102.910004 91.396004 C 102.267876 89.226974 102.949654 87.940788 104.741524 87.940788 C 106.31144 87.940788 109.746864 92.533188 112.375839 98.146111 C 115.004791 103.759041 117.155746 109.238029 117.155746 110.321632 C 117.155746 111.405235 116.178482 112.617577 114.984062 113.015717 Z M 241.805725 89.511902 C 243.499069 87.818573 244.56485 84.773254 244.174164 82.744537 C 243.783478 80.715813 242.155411 79.055946 240.556259 79.055946 C 238.957123 79.055946 237.339294 80.662689 236.961105 82.626495 C 236.582916 84.590294 236.8255 87.635612 237.500229 89.39386 C 238.611374 92.289551 239.016953 92.300674 241.805725 89.511902 Z M 156.204422 74.119926 C 155.184311 74.119926 148.171478 67.678421 140.620407 59.805466 C 133.06929 51.93251 121.590965 39.438385 115.113007 32.040741 C 108.635025 24.643097 103.044403 17.296341 102.689323 15.71463 C 102.312431 14.035614 104.77755 11.55043 108.612549 9.743118 C 112.225388 8.040512 118.271835 4.960129 122.049103 2.897812 C 127.478996 -0.066803 129.40303 -0.340973 131.238861 1.588287 C 132.515976 2.930359 136.445511 13.357513 139.971252 24.75972 C 143.496994 36.161926 148.418457 49.489197 150.907898 54.375839 C 153.397293 59.262497 156.024734 65.704025 156.746643 68.690308 C 157.472229 71.69178 157.229736 74.119926 156.204422 74.119926 Z M 185.293472 64.814575 C 182.560791 65.52919 179.666306 64.564606 177.228653 62.126953 C 174.360443 59.258743 173.423584 55.535706 173.414932 46.971817 C 173.408661 40.727753 172.548599 30.398651 171.503723 24.01828 C 170.327805 16.837967 170.303406 11.110535 171.439682 8.987411 C 172.449356 7.100815 175.958923 4.445694 179.238678 3.087173 C 182.518463 1.728653 186.671387 1.181015 188.467438 1.870224 C 191.236664 2.932877 191.534073 5.064392 190.424438 15.895065 C 189.657501 23.380966 190.093307 33.971146 191.477478 41.483261 C 193.195862 50.809311 193.255783 55.579727 191.697495 58.999817 C 190.519638 61.584869 187.637863 64.201508 185.293472 64.814575 Z M 22.8491 61.903122 C 20.957933 62.267334 18.85107 61.107208 18.167202 59.325073 C 17.483316 57.542938 17.870525 55.138092 19.02766 53.980972 C 20.184782 52.823837 22.58963 52.436646 24.371767 53.120514 C 26.153904 53.804382 27.314024 55.911224 26.949818 57.802414 C 26.585611 59.693588 24.740282 61.538925 22.8491 61.903122 Z M 77.66758 59.494858 C 76.58165 59.762756 72.828354 58.942688 69.326912 57.672501 C 65.82547 56.402298 61.161045 53.561508 58.961494 51.359619 C 55.272255 47.666428 55.200523 47.016159 58.03569 42.968384 C 60.152012 39.946915 63.130722 38.580582 67.601494 38.580582 C 71.480293 38.580582 75.465294 40.095901 77.500435 42.344711 C 79.650932 44.720978 80.673721 48.486816 80.27446 52.558289 C 79.926598 56.105499 78.75351 59.226959 77.66758 59.494858 Z"/>
</svg>
